<mxfile host="app.diagrams.net" agent="Mozilla/5.0 (Windows NT 10.0; Win64; x64) AppleWebKit/537.36 (KHTML, like Gecko) Chrome/132.0.0.0 Safari/537.36" version="26.0.11">
  <diagram id="R2lEEEUBdFMjLlhIrx00" name="Page-1">
    <mxGraphModel dx="1985" dy="1135" grid="1" gridSize="10" guides="1" tooltips="1" connect="1" arrows="1" fold="1" page="1" pageScale="1" pageWidth="850" pageHeight="1100" math="0" shadow="0" extFonts="Permanent Marker^https://fonts.googleapis.com/css?family=Permanent+Marker">
      <root>
        <mxCell id="0" />
        <mxCell id="1" parent="0" />
        <mxCell id="8a2_uwXVVdshXIzQW2-n-33" value="&lt;font style=&quot;font-size: 18px;&quot;&gt;FACTS TABLE&lt;/font&gt;" style="swimlane;whiteSpace=wrap;html=1;" vertex="1" parent="1">
          <mxGeometry x="325" y="430" width="200" height="260" as="geometry" />
        </mxCell>
        <mxCell id="8a2_uwXVVdshXIzQW2-n-54" value="&lt;font style=&quot;forced-color-adjust: none; color: rgb(0, 0, 0); font-family: Helvetica; font-style: normal; font-variant-ligatures: normal; font-variant-caps: normal; font-weight: 400; letter-spacing: normal; orphans: 2; text-indent: 0px; text-transform: none; widows: 2; word-spacing: 0px; -webkit-text-stroke-width: 0px; white-space: nowrap; background-color: rgb(251, 251, 251); text-decoration-thickness: initial; text-decoration-style: initial; text-decoration-color: initial; line-height: 110%;&quot;&gt;patient-id&lt;/font&gt;&lt;div style=&quot;forced-color-adjust: none; color: rgb(0, 0, 0); font-family: Helvetica; font-style: normal; font-variant-ligatures: normal; font-variant-caps: normal; font-weight: 400; letter-spacing: normal; orphans: 2; text-indent: 0px; text-transform: none; widows: 2; word-spacing: 0px; -webkit-text-stroke-width: 0px; white-space: nowrap; background-color: rgb(251, 251, 251); text-decoration-thickness: initial; text-decoration-style: initial; text-decoration-color: initial; line-height: 110%;&quot;&gt;&lt;font style=&quot;forced-color-adjust: none; line-height: 110%;&quot;&gt;doctor-id&lt;/font&gt;&lt;/div&gt;&lt;div style=&quot;forced-color-adjust: none; color: rgb(0, 0, 0); font-family: Helvetica; font-style: normal; font-variant-ligatures: normal; font-variant-caps: normal; font-weight: 400; letter-spacing: normal; orphans: 2; text-indent: 0px; text-transform: none; widows: 2; word-spacing: 0px; -webkit-text-stroke-width: 0px; white-space: nowrap; background-color: rgb(251, 251, 251); text-decoration-thickness: initial; text-decoration-style: initial; text-decoration-color: initial; line-height: 110%;&quot;&gt;&lt;font style=&quot;forced-color-adjust: none; line-height: 110%;&quot;&gt;room-number&lt;/font&gt;&lt;/div&gt;&lt;div style=&quot;forced-color-adjust: none; color: rgb(0, 0, 0); font-family: Helvetica; font-style: normal; font-variant-ligatures: normal; font-variant-caps: normal; font-weight: 400; letter-spacing: normal; orphans: 2; text-indent: 0px; text-transform: none; widows: 2; word-spacing: 0px; -webkit-text-stroke-width: 0px; white-space: nowrap; background-color: rgb(251, 251, 251); text-decoration-thickness: initial; text-decoration-style: initial; text-decoration-color: initial; line-height: 110%;&quot;&gt;&lt;font style=&quot;forced-color-adjust: none; line-height: 110%;&quot;&gt;test-id&lt;/font&gt;&lt;/div&gt;&lt;div style=&quot;forced-color-adjust: none; color: rgb(0, 0, 0); font-family: Helvetica; font-style: normal; font-variant-ligatures: normal; font-variant-caps: normal; font-weight: 400; letter-spacing: normal; orphans: 2; text-indent: 0px; text-transform: none; widows: 2; word-spacing: 0px; -webkit-text-stroke-width: 0px; white-space: nowrap; background-color: rgb(251, 251, 251); text-decoration-thickness: initial; text-decoration-style: initial; text-decoration-color: initial; line-height: 110%;&quot;&gt;&lt;font style=&quot;forced-color-adjust: none; line-height: 110%;&quot;&gt;diagnosis&lt;/font&gt;&lt;/div&gt;&lt;div style=&quot;forced-color-adjust: none; color: rgb(0, 0, 0); font-family: Helvetica; font-style: normal; font-variant-ligatures: normal; font-variant-caps: normal; font-weight: 400; letter-spacing: normal; orphans: 2; text-indent: 0px; text-transform: none; widows: 2; word-spacing: 0px; -webkit-text-stroke-width: 0px; white-space: nowrap; background-color: rgb(251, 251, 251); text-decoration-thickness: initial; text-decoration-style: initial; text-decoration-color: initial; line-height: 110%;&quot;&gt;&lt;font style=&quot;forced-color-adjust: none; line-height: 110%;&quot;&gt;datetime-id&lt;/font&gt;&lt;/div&gt;&lt;div style=&quot;forced-color-adjust: none; color: rgb(0, 0, 0); font-family: Helvetica; font-style: normal; font-variant-ligatures: normal; font-variant-caps: normal; font-weight: 400; letter-spacing: normal; orphans: 2; text-indent: 0px; text-transform: none; widows: 2; word-spacing: 0px; -webkit-text-stroke-width: 0px; white-space: nowrap; background-color: rgb(251, 251, 251); text-decoration-thickness: initial; text-decoration-style: initial; text-decoration-color: initial; line-height: 110%;&quot;&gt;&lt;div style=&quot;forced-color-adjust: none;&quot;&gt;&lt;div style=&quot;forced-color-adjust: none;&quot;&gt;&lt;font style=&quot;forced-color-adjust: none; line-height: 110%;&quot;&gt;date-in&lt;/font&gt;&lt;/div&gt;&lt;div style=&quot;forced-color-adjust: none;&quot;&gt;&lt;font style=&quot;forced-color-adjust: none; line-height: 110%;&quot;&gt;date-out&lt;/font&gt;&lt;/div&gt;&lt;/div&gt;&lt;div style=&quot;forced-color-adjust: none;&quot;&gt;&lt;font style=&quot;forced-color-adjust: none; line-height: 110%;&quot;&gt;acc-amount&lt;/font&gt;&lt;/div&gt;&lt;/div&gt;&lt;div style=&quot;forced-color-adjust: none; color: rgb(0, 0, 0); font-family: Helvetica; font-style: normal; font-variant-ligatures: normal; font-variant-caps: normal; font-weight: 400; letter-spacing: normal; orphans: 2; text-indent: 0px; text-transform: none; widows: 2; word-spacing: 0px; -webkit-text-stroke-width: 0px; white-space: nowrap; background-color: rgb(251, 251, 251); text-decoration-thickness: initial; text-decoration-style: initial; text-decoration-color: initial; line-height: 110%;&quot;&gt;&lt;font style=&quot;forced-color-adjust: none; line-height: 110%;&quot;&gt;bed-charges&lt;/font&gt;&lt;/div&gt;" style="text;whiteSpace=wrap;html=1;align=center;fontSize=17;" vertex="1" parent="8a2_uwXVVdshXIzQW2-n-33">
          <mxGeometry x="45" y="40" width="110" height="200" as="geometry" />
        </mxCell>
        <mxCell id="8a2_uwXVVdshXIzQW2-n-51" style="edgeStyle=orthogonalEdgeStyle;rounded=0;orthogonalLoop=1;jettySize=auto;html=1;exitX=0;exitY=0.5;exitDx=0;exitDy=0;entryX=1;entryY=0.75;entryDx=0;entryDy=0;" edge="1" parent="1" source="8a2_uwXVVdshXIzQW2-n-34" target="8a2_uwXVVdshXIzQW2-n-33">
          <mxGeometry relative="1" as="geometry" />
        </mxCell>
        <mxCell id="8a2_uwXVVdshXIzQW2-n-34" value="&lt;font style=&quot;font-size: 18px;&quot;&gt;Bed Table&lt;/font&gt;" style="swimlane;whiteSpace=wrap;html=1;" vertex="1" parent="1">
          <mxGeometry x="590" y="640" width="200" height="150" as="geometry" />
        </mxCell>
        <mxCell id="8a2_uwXVVdshXIzQW2-n-44" value="&lt;font&gt;room-number&lt;/font&gt;&lt;div&gt;&lt;font&gt;type&lt;/font&gt;&lt;/div&gt;&lt;div&gt;&lt;font&gt;price per hour&lt;/font&gt;&lt;/div&gt;&lt;div&gt;&lt;font&gt;status&lt;/font&gt;&lt;/div&gt;&lt;div&gt;&lt;div style=&quot;&quot;&gt;&lt;br&gt;&lt;/div&gt;&lt;/div&gt;" style="text;html=1;align=center;verticalAlign=middle;resizable=0;points=[];autosize=1;strokeColor=none;fillColor=none;fontSize=18;" vertex="1" parent="8a2_uwXVVdshXIzQW2-n-34">
          <mxGeometry x="35" y="30" width="130" height="120" as="geometry" />
        </mxCell>
        <mxCell id="8a2_uwXVVdshXIzQW2-n-50" style="edgeStyle=orthogonalEdgeStyle;rounded=0;orthogonalLoop=1;jettySize=auto;html=1;exitX=1;exitY=0.5;exitDx=0;exitDy=0;entryX=0;entryY=0.75;entryDx=0;entryDy=0;" edge="1" parent="1" source="8a2_uwXVVdshXIzQW2-n-35" target="8a2_uwXVVdshXIzQW2-n-33">
          <mxGeometry relative="1" as="geometry" />
        </mxCell>
        <mxCell id="8a2_uwXVVdshXIzQW2-n-35" value="&lt;font style=&quot;font-size: 18px;&quot;&gt;Test Table&lt;/font&gt;" style="swimlane;whiteSpace=wrap;html=1;" vertex="1" parent="1">
          <mxGeometry x="60" y="640" width="200" height="145" as="geometry" />
        </mxCell>
        <mxCell id="8a2_uwXVVdshXIzQW2-n-43" value="test-id&lt;div&gt;test name&lt;/div&gt;&lt;div&gt;result&lt;/div&gt;&lt;div&gt;date&lt;/div&gt;&lt;div&gt;time&lt;/div&gt;" style="text;html=1;align=center;verticalAlign=middle;resizable=0;points=[];autosize=1;strokeColor=none;fillColor=none;fontSize=18;" vertex="1" parent="8a2_uwXVVdshXIzQW2-n-35">
          <mxGeometry x="50" y="25" width="100" height="120" as="geometry" />
        </mxCell>
        <mxCell id="8a2_uwXVVdshXIzQW2-n-49" style="edgeStyle=orthogonalEdgeStyle;rounded=0;orthogonalLoop=1;jettySize=auto;html=1;exitX=1;exitY=0.5;exitDx=0;exitDy=0;entryX=0;entryY=0.25;entryDx=0;entryDy=0;" edge="1" parent="1" source="8a2_uwXVVdshXIzQW2-n-36" target="8a2_uwXVVdshXIzQW2-n-33">
          <mxGeometry relative="1" as="geometry" />
        </mxCell>
        <mxCell id="8a2_uwXVVdshXIzQW2-n-36" value="&lt;font style=&quot;font-size: 18px;&quot;&gt;Patient Table&lt;/font&gt;" style="swimlane;whiteSpace=wrap;html=1;" vertex="1" parent="1">
          <mxGeometry x="60" y="390" width="200" height="130" as="geometry" />
        </mxCell>
        <mxCell id="8a2_uwXVVdshXIzQW2-n-42" value="patient-id&lt;div&gt;name&lt;/div&gt;&lt;div&gt;age&lt;/div&gt;&lt;div&gt;sex&lt;/div&gt;" style="text;html=1;align=center;verticalAlign=middle;resizable=0;points=[];autosize=1;strokeColor=none;fillColor=none;fontSize=18;" vertex="1" parent="8a2_uwXVVdshXIzQW2-n-36">
          <mxGeometry x="50" y="30" width="100" height="100" as="geometry" />
        </mxCell>
        <mxCell id="8a2_uwXVVdshXIzQW2-n-52" style="edgeStyle=orthogonalEdgeStyle;rounded=0;orthogonalLoop=1;jettySize=auto;html=1;exitX=0;exitY=0.5;exitDx=0;exitDy=0;entryX=1;entryY=0.25;entryDx=0;entryDy=0;" edge="1" parent="1" source="8a2_uwXVVdshXIzQW2-n-37" target="8a2_uwXVVdshXIzQW2-n-33">
          <mxGeometry relative="1" as="geometry" />
        </mxCell>
        <mxCell id="8a2_uwXVVdshXIzQW2-n-37" value="Doctor Table" style="swimlane;whiteSpace=wrap;html=1;fontSize=18;" vertex="1" parent="1">
          <mxGeometry x="590" y="390" width="200" height="150" as="geometry" />
        </mxCell>
        <mxCell id="8a2_uwXVVdshXIzQW2-n-41" value="&lt;div&gt;&lt;font&gt;doctor-id&lt;/font&gt;&lt;/div&gt;&lt;div&gt;&lt;font&gt;name&lt;/font&gt;&lt;/div&gt;&lt;div&gt;&lt;font&gt;specialization&lt;/font&gt;&lt;/div&gt;&lt;div&gt;&lt;font&gt;phoneno&lt;/font&gt;&lt;/div&gt;&lt;div&gt;&lt;div style=&quot;&quot;&gt;&lt;font style=&quot;&quot;&gt;&lt;font&gt;fee&lt;/font&gt;&lt;br&gt;&lt;/font&gt;&lt;/div&gt;&lt;/div&gt;" style="text;html=1;align=center;verticalAlign=middle;resizable=0;points=[];autosize=1;strokeColor=none;fillColor=none;fontSize=18;" vertex="1" parent="8a2_uwXVVdshXIzQW2-n-37">
          <mxGeometry x="35" y="30" width="130" height="120" as="geometry" />
        </mxCell>
        <mxCell id="8a2_uwXVVdshXIzQW2-n-53" style="edgeStyle=orthogonalEdgeStyle;rounded=0;orthogonalLoop=1;jettySize=auto;html=1;exitX=0.5;exitY=1;exitDx=0;exitDy=0;entryX=0.5;entryY=0;entryDx=0;entryDy=0;" edge="1" parent="1" source="8a2_uwXVVdshXIzQW2-n-46" target="8a2_uwXVVdshXIzQW2-n-33">
          <mxGeometry relative="1" as="geometry" />
        </mxCell>
        <mxCell id="8a2_uwXVVdshXIzQW2-n-46" value="&lt;font style=&quot;font-size: 18px;&quot;&gt;Datetime Table&lt;/font&gt;" style="swimlane;whiteSpace=wrap;html=1;" vertex="1" parent="1">
          <mxGeometry x="325" y="140" width="200" height="240" as="geometry" />
        </mxCell>
        <mxCell id="8a2_uwXVVdshXIzQW2-n-47" value="datetime-id&lt;div&gt;examine-date&lt;/div&gt;&lt;div&gt;examine-time&lt;/div&gt;&lt;div&gt;bed-datein&lt;/div&gt;&lt;div&gt;bed-dateout&lt;/div&gt;&lt;div&gt;bed-timein&lt;/div&gt;&lt;div&gt;bed-timeout&lt;/div&gt;&lt;div&gt;&lt;br&gt;&lt;/div&gt;" style="text;html=1;align=center;verticalAlign=middle;resizable=0;points=[];autosize=1;strokeColor=none;fillColor=none;fontSize=18;" vertex="1" parent="8a2_uwXVVdshXIzQW2-n-46">
          <mxGeometry x="35" y="30" width="130" height="190" as="geometry" />
        </mxCell>
      </root>
    </mxGraphModel>
  </diagram>
</mxfile>
